####
#
# OBJ File Generated by Meshlab
#
####
# Object TH3_z.obj
#
# Vertices: 215
# Faces: 422
#
####
vn 0.659397 -0.380717 0.648267
v 6.562990 -2.382768 47.242699
vn 0.659397 -0.380717 0.648267
v 5.352630 -4.479268 47.242599
vn 0.659397 -0.380717 0.648267
v 8.872469 -3.223368 44.399899
vn 0.442311 -0.117881 0.889081
v 6.609169 0.001134 47.535801
vn 0.442311 -0.117881 0.889081
v 2.846790 -2.376568 49.092300
vn 0.375673 0.012172 0.926672
v 2.542210 1.397902 49.166199
vn 0.922193 0.299649 0.244481
v 12.342199 2.621740 3.915280
vn 0.922193 0.299649 0.244481
v 11.527899 5.127820 3.915270
vn 0.922193 0.299649 0.244481
v 11.016299 0.001131 12.128600
vn 0.941591 0.305959 -0.140693
v 9.958089 4.428921 37.154099
vn 0.941591 0.305959 -0.140693
v 10.661399 2.264482 37.154099
vn 0.941591 0.305959 -0.140693
v 10.153999 0.001132 28.836300
vn 0.944751 0.314196 0.093415
v 8.875569 6.440061 12.121900
vn 0.944751 0.314196 0.093415
v 10.192299 0.001132 20.462099
vn 0.947931 0.318446 0.004335
v 8.195269 5.945821 20.458700
vn 0.938783 0.312790 -0.144395
v 8.177799 5.933082 28.837900
vn 0.797900 0.579716 0.165179
v 8.447139 9.368060 3.915280
vn 0.691249 0.691263 0.210545
v 6.452030 8.863551 12.121900
vn 0.703633 0.703616 0.099122
v 5.957839 8.183301 20.458700
vn 0.707093 0.707116 0.002560
v 5.945049 8.165761 28.837900
vn 0.802638 0.583163 -0.125277
v 7.297319 8.091102 37.154202
vn 0.577175 0.794411 0.189154
v 6.315350 10.916900 3.915280
vn 0.451756 0.886618 0.099124
v 3.398320 10.419501 12.121900
vn 0.397090 0.891869 0.216538
v 3.908080 11.988700 3.915270
vn 0.453990 0.891003 0.002558
v 3.138460 9.619851 20.458700
vn 0.453016 0.889080 -0.065681
v 3.131750 9.599231 28.837900
vn 0.497845 0.862266 -0.092998
v 3.377120 10.354502 37.154202
vn 0.203861 0.959166 0.196066
v 1.330670 12.536500 3.915280
vn 0.000000 0.968301 0.249785
v -3.372080 10.419501 12.121900
vn 0.000000 0.999997 0.002461
v -3.112220 9.619851 20.458700
vn 0.000000 0.995901 -0.090446
v -3.105500 9.599231 28.837900
vn 0.000000 0.968301 0.249785
v -1.304430 12.536500 3.915280
vn 0.103005 0.980165 -0.169310
v -1.124750 10.827601 37.154202
vn -0.203860 0.959166 0.196066
v -3.881840 11.988700 3.915280
vn -0.398847 0.895813 0.196064
v -6.289110 10.916900 3.915280
vn -0.451756 0.886618 0.099124
v -6.425789 8.863551 12.121900
vn -0.451756 0.886618 0.099124
v -5.931600 8.183301 20.458700
vn -0.453995 0.891001 0.002559
v -5.918799 8.165761 28.837900
vn -0.406054 0.912017 -0.057838
v -7.271060 8.091102 37.154202
vn -0.577175 0.794412 0.189154
v -8.420899 9.368060 3.915280
vn -0.787946 0.572473 0.226751
v -11.501599 5.127820 3.915280
vn -0.702433 0.702447 0.114696
v -8.849329 6.440061 12.121900
vn -0.703633 0.703614 0.099132
v -8.169019 5.945821 20.458700
vn -0.702959 0.702984 -0.107993
v -8.151559 5.933082 28.837900
vn -0.807208 0.586484 -0.066724
v -9.931839 4.428921 37.154099
vn -0.919168 0.305857 0.248156
v -10.990099 0.001131 12.128600
vn -0.943789 0.317098 0.093331
v -10.165999 0.001132 20.462099
vn -0.938785 0.312781 -0.144396
v -10.127699 0.001132 28.836300
vn -0.960834 0.204232 0.187318
v -12.591299 0.001130 3.915350
vn -0.941598 0.305940 -0.140688
v -10.635099 2.264482 37.154099
vn 0.489448 -0.583263 0.648263
v 3.498250 -6.035268 47.242699
vn 0.489448 -0.583263 0.648263
v 7.235240 -6.058968 44.399899
vn 0.726329 -0.097721 0.680365
v 9.679699 -0.008856 44.256401
vn 0.922342 -0.150815 0.355726
v 10.147999 -3.687668 40.895802
vn 0.922342 -0.150815 0.355726
v 10.657399 -0.005539 41.136101
vn 0.950892 0.308973 0.018447
v 12.917099 1.094790 -0.143839
vn 0.558138 0.284387 -0.779491
v 8.306489 6.026619 -7.261751
vn 0.558138 0.284387 -0.779491
v 9.762569 3.168920 -7.261750
vn 0.558138 0.284387 -0.779491
v 4.715469 5.683280 -9.958290
vn 0.492132 0.492158 -0.718044
v 6.038589 8.294500 -7.261681
vn 0.600576 -0.715725 0.356435
v 4.727059 -8.163668 44.399799
vn 0.600576 -0.715725 0.356435
v 8.275099 -6.931468 40.895802
vn 0.809007 0.587786 0.003972
v 7.642449 10.502000 0.009076
vn 0.397228 0.779605 -0.484175
v 3.180890 9.750570 -7.261681
vn 0.397228 0.779605 -0.484175
v 7.167059 9.847770 -3.834831
vn 0.397227 0.779606 -0.484174
v 3.774220 11.576500 -3.834831
vn 0.444504 0.872365 -0.203461
v 4.024109 12.345700 0.009143
vn 0.000005 0.882537 -0.470243
v -3.154720 9.750570 -7.261751
vn 0.000008 0.704603 -0.709602
v -2.272180 7.034460 -9.958720
vn 0.153162 0.967028 -0.203464
v 0.013119 12.172200 -3.834831
vn 0.207719 0.977323 0.041150
v 0.013118 12.981000 0.009144
vn -0.136877 0.864206 -0.484162
v -3.747980 11.576500 -3.834831
vn -0.156162 0.985936 0.059521
v -3.997870 12.345700 0.009147
vn -0.245792 0.367520 -0.896948
v -5.641699 4.785560 -9.956840
vn -0.245792 0.367520 -0.896948
v -3.113070 2.272449 -11.679500
vn -0.287442 0.564137 -0.774032
v -6.012420 8.294500 -7.261751
vn -0.444482 0.872375 -0.203462
v -7.140890 9.847770 -3.834900
vn -0.444506 0.872369 -0.203438
v -7.616210 10.502000 0.009079
vn -0.618706 0.618692 -0.484172
v -8.280249 6.026619 -7.261751
vn -0.618713 0.618689 -0.484167
v -9.833489 7.155130 -3.834820
vn -0.692307 0.692326 -0.203462
v -10.487799 7.630490 0.009079
vn -0.611719 0.294168 -0.734347
v -6.828839 2.313770 -9.958100
vn -0.597937 0.304666 -0.741384
v -9.736329 3.168920 -7.261750
vn -0.779588 0.397250 -0.484185
v -11.562399 3.762210 -3.834820
vn -0.889422 0.453195 0.059521
v -12.331499 4.012120 0.009077
vn -0.873694 0.081308 -0.479632
v -12.085499 0.036929 -3.513460
vn -0.993741 0.104023 0.040720
v -12.759299 -0.068198 -0.007477
vn 0.924799 0.324373 0.198820
v 8.275099 6.933762 40.895802
vn 0.703709 0.267830 0.658073
v 7.235240 6.061252 44.399899
vn 0.417658 0.175475 0.891499
v 5.352630 4.481492 47.242599
vn 0.600578 0.715723 0.356437
v 5.405809 9.341442 40.895802
vn 0.489418 0.583283 0.648268
v 4.727059 8.165912 44.399799
vn 0.269347 0.320937 0.907993
v 3.498250 6.037502 47.242699
vn 0.341196 0.937469 0.068829
v 1.885970 10.622502 40.895802
vn 0.260438 0.715502 0.648250
v 1.650220 9.285772 44.399899
vn 0.000000 0.934325 0.356423
v -1.859710 10.622502 40.895802
vn 0.000000 0.658579 0.752512
v -1.623970 9.285772 44.399899
vn 0.134778 0.764365 0.630540
v -1.197230 6.865442 47.242699
vn 0.053750 0.363899 0.929886
v -2.820540 2.378842 49.092300
vn -0.319545 0.877981 0.356427
v -5.379550 9.341442 40.895802
vn -0.260411 0.715502 0.648262
v -4.700880 8.165912 44.399899
vn -0.600579 0.715727 0.356427
v -8.248849 6.933762 40.895802
vn -0.423332 0.504480 0.752522
v -7.208980 6.061252 44.399899
vn -0.388085 0.672160 0.630548
v -5.326379 4.481492 47.242599
vn -0.904346 0.404576 0.135929
v -10.610600 1.655432 40.893200
vn -0.679237 0.350685 0.644715
v -9.637319 1.118842 44.529900
vn -0.639504 0.227410 0.734384
v -6.582910 0.001134 47.535801
vn 0.950972 -0.309013 0.012765
v 9.958089 -4.426669 37.154099
vn 0.950972 -0.309013 0.012765
v 10.661399 -2.262268 37.154099
vn -0.976341 -0.102609 0.190341
v -12.315899 -2.619470 3.915280
vn -0.980721 -0.169647 0.096984
v -10.405199 -3.383970 12.121900
vn -0.979405 -0.175732 0.099415
v -9.605579 -3.124169 20.458700
vn -0.985191 -0.171442 0.002557
v -9.584999 -3.117469 28.837900
vn -0.992122 0.000000 -0.125277
v -10.635099 -2.262268 37.154099
vn -0.933884 -0.303444 0.189163
v -11.501599 -5.125570 3.915280
vn -0.947369 -0.307821 -0.087971
v -9.931839 -4.426669 37.154099
vn -0.886633 -0.451728 0.099118
v -8.849329 -6.437769 12.121900
vn -0.891003 -0.453990 0.002551
v -8.169019 -5.943569 20.458700
vn -0.885803 -0.451321 -0.107994
v -8.151559 -5.930869 28.837900
vn -0.797903 -0.579713 0.165178
v -8.420899 -9.365770 3.915281
vn -0.691251 -0.691262 0.210545
v -6.425789 -8.861269 12.121900
vn -0.707117 -0.707092 0.002545
v -5.931600 -8.181069 20.458700
vn -0.707079 -0.707130 0.002565
v -5.918799 -8.163469 28.837900
vn -0.802638 -0.583162 -0.125280
v -7.271060 -8.088868 37.154202
vn -0.577197 -0.794395 0.189158
v -6.289110 -10.914700 3.915281
vn -0.451775 -0.886609 0.099119
v -3.372080 -10.417299 12.121900
vn -0.397059 -0.891880 0.216550
v -3.881840 -11.986400 3.915281
vn -0.451743 -0.886624 0.099133
v -3.112220 -9.617569 20.458700
vn -0.453023 -0.889076 -0.065688
v -3.105500 -9.596969 28.837900
vn -0.497834 -0.862273 -0.092993
v -3.350860 -10.352198 37.154202
vn -0.203896 -0.959160 0.196056
v -1.304430 -12.534300 3.915281
vn 0.000000 -0.968301 0.249785
v 1.330670 -12.534300 3.915281
vn -0.104083 -0.990211 -0.092995
v 1.151000 -10.825398 37.154202
vn 0.000000 -0.995430 0.095489
v 3.398320 -10.417299 12.121900
vn 0.000000 -0.999997 0.002458
v 3.138460 -9.617569 20.458700
vn 0.000000 -0.989266 -0.146128
v 3.131750 -9.596969 28.837900
vn 0.398817 -0.895828 0.196055
v 3.908080 -11.986400 3.915281
vn 0.398817 -0.895828 0.196055
v 6.315350 -10.914700 3.915281
vn 0.443833 -0.871022 0.210552
v 6.452030 -8.861269 12.121900
vn 0.453977 -0.891010 0.002554
v 5.957839 -8.181069 20.458700
vn 0.454002 -0.890997 0.002564
v 5.945049 -8.163469 28.837900
vn 0.406057 -0.912015 -0.057846
v 7.297319 -8.088868 37.154202
vn 0.577197 -0.794395 0.189158
v 8.447139 -9.365770 3.915281
vn 0.787938 -0.572484 0.226749
v 11.527899 -5.125570 3.915270
vn 0.702434 -0.702445 0.114705
v 8.875569 -6.437769 12.121900
vn 0.707116 -0.707093 0.002565
v 8.195269 -5.943569 20.458700
vn 0.702948 -0.702995 -0.107996
v 8.177799 -5.930869 28.837900
vn 0.886625 -0.451741 0.099129
v 10.431499 -3.383970 12.121900
vn 0.891003 -0.453990 0.002546
v 9.631829 -3.124169 20.458700
vn 0.885802 -0.451323 -0.107994
v 9.611249 -3.117469 28.837900
vn 0.933884 -0.303445 0.189163
v 12.342199 -2.619470 3.915280
vn -0.418819 0.066333 -0.905644
v -3.661930 -1.192971 -11.679500
vn -0.462778 0.017143 -0.886309
v -6.965720 -1.299690 -9.956520
vn -0.847338 -0.000001 -0.531054
v -9.736329 -3.166670 -7.261740
vn -0.864916 -0.049889 -0.499431
v -11.642699 -3.811340 -3.895890
vn -0.993681 -0.104428 0.041139
v -12.331499 -4.009870 0.009077
vn -0.453586 -0.147674 -0.878892
v -5.969779 -4.345671 -9.958720
vn -0.766856 -0.390734 -0.509175
v -8.280249 -6.024371 -7.261750
vn -0.864236 -0.471148 -0.176396
v -9.833489 -7.152870 -3.834820
vn -0.872365 -0.444500 -0.203468
v -10.487799 -7.628270 0.009080
vn -0.618711 -0.618692 -0.484166
v -6.012420 -8.292270 -7.261750
vn -0.692318 -0.692312 -0.203469
v -7.140890 -9.845470 -3.834899
vn -0.692310 -0.692324 -0.203455
v -7.616210 -10.499800 0.009080
vn -0.444502 -0.872366 -0.203460
v -3.747980 -11.574300 -3.834820
vn -0.453200 -0.889421 0.059500
v -3.997870 -12.343500 0.009151
vn -0.153163 -0.967028 -0.203465
v 0.013119 -12.170000 -3.834830
vn -0.136878 -0.864205 -0.484163
v 0.013118 -10.250100 -7.261750
vn -0.153145 -0.967035 -0.203446
v 0.013119 -12.978700 0.009147
vn -0.046329 -0.292510 -0.955140
v 3.139310 -2.270170 -11.679500
vn -0.046329 -0.292510 -0.955140
v 0.013119 -7.394170 -9.958650
vn 0.055079 -0.347919 -0.935905
v 2.298420 -7.032170 -9.958730
vn 0.136915 -0.864201 -0.484160
v 3.180890 -9.748270 -7.261680
vn 0.153163 -0.967032 -0.203445
v 3.774220 -11.574300 -3.834830
vn 0.153144 -0.967031 -0.203464
v 4.024109 -12.343500 0.009147
vn 0.268044 -0.368927 -0.889969
v 5.996019 -4.345671 -9.958730
vn 0.397209 -0.779604 -0.484193
v 6.038589 -8.292270 -7.261680
vn 0.444513 -0.872360 -0.203461
v 7.167059 -9.845470 -3.834830
vn 0.444503 -0.872363 -0.203471
v 7.642449 -10.499800 0.009077
vn 0.488649 -0.488672 -0.722787
v 8.306489 -6.024371 -7.261750
vn 0.618696 -0.618709 -0.484164
v 9.859719 -7.152870 -3.834830
vn 0.692313 -0.692318 -0.203464
v 10.513999 -7.628270 0.009075
vn 0.394236 -0.200887 -0.896784
v 7.046500 -2.284170 -9.958720
vn 0.779609 -0.397234 -0.484164
v 9.762569 -3.166670 -7.261750
vn 0.779592 -0.397248 -0.484180
v 11.588599 -3.759970 -3.834830
vn 0.889425 -0.453193 0.059500
v 12.357699 -4.009870 0.009074
vn -0.965411 -0.088217 0.245354
v -10.121699 -3.687668 40.895802
vn -0.720944 -0.151592 0.676210
v -8.846219 -3.223368 44.399899
vn -0.758950 -0.093921 0.644340
v -6.536739 -2.382768 47.242699
vn -0.538389 0.094932 0.837332
v -3.462870 -1.264018 49.092300
vn -0.864723 -0.499259 0.054728
v -8.248849 -6.931468 40.895802
vn -0.659393 -0.380725 0.648266
v -7.208980 -6.058968 44.399899
vn -0.659402 -0.380719 0.648261
v -5.326379 -4.479268 47.242599
vn -0.641277 -0.764218 0.068813
v -5.379560 -9.339169 40.895802
vn -0.600599 -0.715713 0.356421
v -4.700880 -8.163668 44.399899
vn -0.289906 -0.345443 0.892538
v -3.471990 -6.035268 47.242699
vn -0.319560 -0.877977 0.356423
v -1.859710 -10.620298 40.895802
vn -0.260399 -0.715505 0.648263
v -1.623970 -9.283468 44.399899
vn 0.000000 -0.998501 0.054734
v 1.885970 -10.620298 40.895802
vn 0.000000 -0.934316 0.356446
v 1.650230 -9.283468 44.399899
vn 0.319557 -0.877968 0.356448
v 5.405809 -9.339169 40.895802
vn -0.369802 -0.521485 -0.768960
v -3.199070 -6.568491 -9.783740
vn -0.139387 -0.862604 -0.486298
v -3.783350 -9.397950 -7.685130
vn 0.670801 0.567097 -0.477941
v 9.975859 6.396290 -3.987940
vn 0.929893 0.365124 -0.044529
v 10.945699 6.098010 -0.287483
vn 0.875629 -0.008081 -0.482916
v 11.566699 1.440500 -3.961560
vn 0.342806 0.605516 -0.718216
v 1.441900 7.540370 -9.955090
vn 0.242451 0.159065 -0.957035
v 7.229859 1.884770 -9.952640
vn -0.000000 -1.000000 0.000000
v 1.000000 -1.000000 -1.000000
vn -0.000000 -1.000000 0.000000
v 1.000000 -1.000000 1.000000
vn -0.000000 -1.000000 0.000000
v -1.000000 -1.000000 1.000000
vn -0.000000 -1.000000 0.000000
v -1.000000 -1.000000 -1.000000
vn 0.000000 1.000000 -0.000000
v 1.000000 1.000000 -1.000000
vn 0.000000 1.000000 -0.000000
v -1.000000 1.000000 -1.000000
vn 0.000000 1.000000 -0.000000
v -1.000000 1.000000 1.000000
vn 0.000000 1.000000 -0.000000
v 0.999999 1.000000 1.000001
# 215 vertices, 0 vertices normals

f 1//1 2//2 3//3
f 1//1 4//4 5//5
f 6//6 5//5 4//4
f 7//7 8//8 9//9
f 10//10 11//11 12//12
f 9//9 13//13 14//14
f 13//13 9//9 8//8
f 14//14 15//15 12//12
f 15//15 14//14 13//13
f 12//12 16//16 10//10
f 16//16 12//12 15//15
f 8//8 17//17 13//13
f 18//18 13//13 17//17
f 13//13 18//18 15//15
f 19//19 15//15 18//18
f 15//15 19//19 16//16
f 20//20 16//16 19//19
f 20//20 21//21 10//10
f 16//16 20//20 10//10
f 17//17 22//22 18//18
f 18//18 23//23 19//19
f 18//18 22//22 24//24
f 23//23 18//18 24//24
f 19//19 25//25 20//20
f 25//25 19//19 23//23
f 20//20 26//26 21//21
f 26//26 20//20 25//25
f 27//27 21//21 26//26
f 24//24 28//28 23//23
f 29//29 23//23 28//28
f 23//23 29//29 25//25
f 25//25 30//30 26//26
f 30//30 25//25 29//29
f 26//26 31//31 27//27
f 31//31 26//26 30//30
f 28//28 32//32 29//29
f 33//33 27//27 31//31
f 29//29 32//32 34//34
f 34//34 35//35 29//29
f 29//29 36//36 30//30
f 36//36 29//29 35//35
f 37//37 30//30 36//36
f 30//30 37//37 31//31
f 38//38 31//31 37//37
f 38//38 39//39 33//33
f 31//31 38//38 33//33
f 35//35 40//40 36//36
f 36//36 40//40 41//41
f 42//42 36//36 41//41
f 36//36 42//42 37//37
f 43//43 37//37 42//42
f 37//37 43//43 38//38
f 38//38 44//44 39//39
f 44//44 38//38 43//43
f 45//45 39//39 44//44
f 46//46 42//42 41//41
f 42//42 46//46 43//43
f 47//47 43//43 46//46
f 43//43 47//47 44//44
f 44//44 48//48 45//45
f 48//48 44//44 47//47
f 41//41 49//49 46//46
f 50//50 45//45 48//48
f 2//2 51//51 52//52
f 2//2 1//1 5//5
f 4//4 1//1 53//53
f 54//54 55//55 3//3
f 8//8 7//7 56//56
f 57//57 58//58 59//59
f 60//60 57//57 59//59
f 52//52 61//61 62//62
f 63//63 17//17 8//8
f 22//22 17//17 63//63
f 60//60 64//64 65//65
f 64//64 60//60 59//59
f 66//66 65//65 64//64
f 65//65 66//66 63//63
f 67//67 63//63 66//66
f 63//63 67//67 22//22
f 24//24 22//22 67//67
f 64//64 68//68 66//66
f 68//68 64//64 69//69
f 66//66 70//70 67//67
f 70//70 66//66 68//68
f 71//71 28//28 24//24
f 67//67 71//71 24//24
f 71//71 67//67 70//70
f 32//32 28//28 71//71
f 72//72 70//70 68//68
f 70//70 72//72 71//71
f 71//71 73//73 32//32
f 73//73 71//71 72//72
f 34//34 32//32 73//73
f 74//74 69//69 75//75
f 69//69 74//74 68//68
f 76//76 68//68 74//74
f 68//68 76//76 72//72
f 72//72 77//77 73//73
f 77//77 72//72 76//76
f 78//78 73//73 77//77
f 78//78 35//35 34//34
f 73//73 78//78 34//34
f 40//40 35//35 78//78
f 76//76 79//79 77//77
f 79//79 76//76 74//74
f 80//80 77//77 79//79
f 77//77 80//80 78//78
f 81//81 78//78 80//80
f 78//78 81//81 40//40
f 41//41 40//40 81//81
f 74//74 82//82 79//79
f 82//82 74//74 75//75
f 83//83 79//79 82//82
f 79//79 83//83 80//80
f 84//84 80//80 83//83
f 80//80 84//84 81//81
f 81//81 85//85 41//41
f 85//85 81//81 84//84
f 49//49 41//41 85//85
f 86//86 84//84 83//83
f 84//84 86//86 85//85
f 85//85 87//87 49//49
f 87//87 85//85 86//86
f 3//3 55//55 53//53
f 11//11 10//10 55//55
f 88//88 55//55 10//10
f 55//55 88//88 53//53
f 53//53 89//89 4//4
f 89//89 53//53 88//88
f 4//4 90//90 6//6
f 90//90 4//4 89//89
f 10//10 21//21 88//88
f 88//88 91//91 89//89
f 91//91 88//88 21//21
f 89//89 92//92 90//90
f 92//92 89//89 91//91
f 90//90 93//93 6//6
f 93//93 90//90 92//92
f 21//21 27//27 91//91
f 94//94 91//91 27//27
f 91//91 94//94 92//92
f 92//92 95//95 93//93
f 95//95 92//92 94//94
f 94//94 96//96 95//95
f 94//94 27//27 33//33
f 96//96 94//94 33//33
f 95//95 97//97 93//93
f 97//97 95//95 96//96
f 98//98 93//93 97//97
f 93//93 98//98 6//6
f 99//99 6//6 98//98
f 96//96 100//100 97//97
f 96//96 33//33 39//39
f 100//100 96//96 39//39
f 97//97 101//101 98//98
f 101//101 97//97 100//100
f 100//100 102//102 101//101
f 102//102 100//100 39//39
f 101//101 103//103 98//98
f 103//103 101//101 102//102
f 104//104 98//98 103//103
f 98//98 104//104 99//99
f 39//39 45//45 102//102
f 105//105 102//102 45//45
f 102//102 105//105 103//103
f 103//103 106//106 104//104
f 106//106 103//103 105//105
f 107//107 104//104 106//106
f 104//104 107//107 99//99
f 45//45 50//50 105//105
f 53//53 1//1 3//3
f 108//108 109//109 54//54
f 49//49 110//110 46//46
f 52//52 3//3 2//2
f 46//46 111//111 47//47
f 111//111 46//46 110//110
f 112//112 47//47 111//111
f 112//112 48//48 47//47
f 113//113 48//48 112//112
f 113//113 114//114 50//50
f 113//113 50//50 48//48
f 62//62 54//54 52//52
f 110//110 115//115 111//111
f 116//116 114//114 113//113
f 111//111 117//117 112//112
f 117//117 111//111 115//115
f 112//112 118//118 113//113
f 118//118 112//112 117//117
f 113//113 119//119 116//116
f 119//119 113//113 118//118
f 115//115 120//120 117//117
f 121//121 117//117 120//120
f 117//117 121//121 118//118
f 118//118 122//122 119//119
f 122//122 118//118 121//121
f 123//123 119//119 122//122
f 123//123 124//124 116//116
f 119//119 123//123 116//116
f 120//120 125//125 121//121
f 121//121 126//126 122//122
f 121//121 125//125 127//127
f 126//126 121//121 127//127
f 128//128 122//122 126//126
f 122//122 128//128 123//123
f 123//123 129//129 124//124
f 129//129 123//123 128//128
f 130//130 124//124 129//129
f 127//127 131//131 126//126
f 131//131 132//132 126//126
f 133//133 130//130 129//129
f 126//126 134//134 128//128
f 128//128 135//135 129//129
f 135//135 128//128 134//134
f 129//129 136//136 133//133
f 136//136 129//129 135//135
f 137//137 138//138 134//134
f 139//139 134//134 138//138
f 134//134 139//139 135//135
f 135//135 140//140 136//136
f 140//140 135//135 139//139
f 141//141 136//136 140//140
f 141//141 142//142 133//133
f 136//136 141//141 133//133
f 138//138 143//143 139//139
f 139//139 143//143 144//144
f 145//145 139//139 144//144
f 139//139 145//145 140//140
f 140//140 146//146 141//141
f 146//146 140//140 145//145
f 141//141 147//147 142//142
f 147//147 141//141 146//146
f 108//108 142//142 147//147
f 145//145 148//148 146//146
f 148//148 145//145 144//144
f 146//146 149//149 147//147
f 149//149 146//146 148//148
f 147//147 150//150 108//108
f 150//150 147//147 149//149
f 144//144 151//151 148//148
f 109//109 108//108 150//150
f 148//148 151//151 7//7
f 148//148 7//7 9//9
f 54//54 62//62 108//108
f 148//148 9//9 149//149
f 149//149 14//14 150//150
f 149//149 9//9 14//14
f 150//150 12//12 109//109
f 3//3 52//52 54//54
f 12//12 150//150 14//14
f 11//11 109//109 12//12
f 75//75 152//152 82//82
f 153//153 82//82 152//152
f 82//82 153//153 83//83
f 154//154 86//86 83//83
f 154//154 83//83 153//153
f 155//155 86//86 154//154
f 155//155 87//87 86//86
f 156//156 110//110 49//49
f 156//156 49//49 87//87
f 156//156 87//87 155//155
f 115//115 110//110 156//156
f 157//157 153//153 152//152
f 153//153 157//157 154//154
f 154//154 158//158 155//155
f 158//158 154//154 157//157
f 155//155 159//159 156//156
f 159//159 155//155 158//158
f 160//160 156//156 159//159
f 156//156 160//160 115//115
f 158//158 161//161 159//159
f 161//161 158//158 157//157
f 159//159 162//162 160//160
f 162//162 159//159 161//161
f 163//163 160//160 162//162
f 125//125 120//120 163//163
f 162//162 164//164 163//163
f 163//163 165//165 125//125
f 165//165 163//163 164//164
f 127//127 125//125 165//165
f 164//164 166//166 165//165
f 166//166 164//164 167//167
f 168//168 165//165 166//166
f 168//168 131//131 127//127
f 165//165 168//168 127//127
f 132//132 131//131 168//168
f 152//152 169//169 170//170
f 169//169 152//152 75//75
f 171//171 170//170 169//169
f 170//170 171//171 167//167
f 167//167 172//172 166//166
f 172//172 167//167 171//171
f 166//166 173//173 168//168
f 173//173 166//166 172//172
f 174//174 168//168 173//173
f 168//168 174//174 132//132
f 137//137 132//132 174//174
f 175//175 171//171 169//169
f 171//171 175//175 172//172
f 172//172 176//176 173//173
f 176//176 172//172 175//175
f 173//173 177//177 174//174
f 177//177 173//173 176//176
f 178//178 174//174 177//177
f 178//178 138//138 137//137
f 174//174 178//178 137//137
f 143//143 138//138 178//178
f 179//179 176//176 175//175
f 176//176 179//179 177//177
f 180//180 177//177 179//179
f 177//177 180//180 178//178
f 181//181 178//178 180//180
f 178//178 181//181 143//143
f 144//144 143//143 181//181
f 182//182 175//175 169//169
f 175//175 182//182 179//179
f 179//179 183//183 180//180
f 183//183 179//179 182//182
f 184//184 180//180 183//183
f 180//180 184//184 181//181
f 181//181 185//185 144//144
f 185//185 181//181 184//184
f 151//151 144//144 185//185
f 169//169 75//75 59//59
f 183//183 58//58 184//184
f 184//184 56//56 185//185
f 185//185 56//56 151//151
f 7//7 151//151 56//56
f 50//50 114//114 105//105
f 186//186 106//106 105//105
f 186//186 105//105 114//114
f 51//51 2//2 5//5
f 106//106 187//187 107//107
f 187//187 106//106 186//186
f 188//188 107//107 187//187
f 142//142 108//108 62//62
f 189//189 99//99 188//188
f 114//114 116//116 186//186
f 190//190 186//186 116//116
f 186//186 190//190 187//187
f 187//187 191//191 188//188
f 191//191 187//187 190//190
f 192//192 188//188 191//191
f 188//188 192//192 189//189
f 116//116 124//124 190//190
f 193//193 190//190 124//124
f 190//190 193//193 191//191
f 194//194 191//191 193//193
f 191//191 194//194 192//192
f 192//192 195//195 189//189
f 195//195 192//192 194//194
f 124//124 130//130 193//193
f 193//193 196//196 194//194
f 196//196 193//193 130//130
f 194//194 197//197 195//195
f 197//197 194//194 196//196
f 196//196 130//130 133//133
f 198//198 196//196 133//133
f 196//196 198//198 197//197
f 199//199 197//197 198//198
f 197//197 199//199 195//195
f 51//51 195//195 199//199
f 195//195 51//51 189//189
f 5//5 189//189 51//51
f 189//189 5//5 99//99
f 198//198 200//200 199//199
f 61//61 199//199 200//200
f 199//199 61//61 51//51
f 62//62 200//200 142//142
f 200//200 62//62 61//61
f 61//61 52//52 51//51
f 11//11 55//55 109//109
f 54//54 109//109 55//55
f 133//133 200//200 198//198
f 133//133 142//142 200//200
f 120//120 160//160 163//163
f 115//115 160//160 120//120
f 157//157 201//201 161//161
f 170//170 201//201 152//152
f 201//201 157//157 152//152
f 167//167 164//164 202//202
f 170//170 167//167 202//202
f 162//162 202//202 164//164
f 161//161 202//202 162//162
f 170//170 202//202 201//201
f 161//161 201//201 202//202
f 65//65 203//203 60//60
f 56//56 204//204 8//8
f 204//204 63//63 8//8
f 63//63 204//204 203//203
f 63//63 203//203 65//65
f 58//58 205//205 184//184
f 205//205 56//56 184//184
f 58//58 203//203 205//205
f 58//58 57//57 203//203
f 57//57 60//60 203//203
f 56//56 203//203 204//204
f 56//56 205//205 203//203
f 59//59 206//206 64//64
f 206//206 69//69 64//64
f 69//69 206//206 75//75
f 206//206 59//59 75//75
f 59//59 207//207 169//169
f 207//207 182//182 169//169
f 182//182 207//207 183//183
f 183//183 207//207 58//58
f 207//207 59//59 58//58
f 132//132 137//137 134//134
f 126//126 132//132 134//134
f 5//5 6//6 99//99
f 99//99 107//107 188//188
f 208//208 209//209 210//210
f 208//208 210//210 211//211
f 212//212 213//213 214//214
f 212//212 214//214 215//215
f 208//208 212//212 215//215
f 208//208 215//215 209//209
f 209//209 215//215 214//214
f 209//209 214//214 210//210
f 210//210 214//214 213//213
f 210//210 213//213 211//211
f 212//212 208//208 211//211
f 212//212 211//211 213//213
# 422 faces, 0 coords texture

# End of File
